<svg width="22" height="23" viewBox="0 0 22 23" fill="none" xmlns="http://www.w3.org/2000/svg">
<path d="M7.50173 0.00393673C7.80078 -0.0106351 8.0329 0.0122587 8.31395 0.123267C8.80576 0.317544 9.29485 0.532419 9.78118 0.740121L12.278 1.80115L13.8299 2.45681C14.3629 2.68189 15.0072 2.86781 15.26 3.43709C15.3229 3.58047 15.362 3.73315 15.3758 3.88913C15.4388 4.64101 15.3912 5.61463 15.3912 6.38659C15.3912 7.27103 15.4358 8.30057 15.3814 9.17027C15.371 9.33594 15.3468 9.51698 15.2854 9.67219C15.1499 10.0151 14.6373 10.1675 14.3272 10.3046C12.543 11.0933 11.4281 13.1436 11.5974 15.0644C11.6158 15.2728 11.643 15.4857 11.6915 15.6895C11.7776 16.0516 12.0098 16.4708 11.8618 16.8403C11.5363 17.6526 8.96284 19.1957 8.11448 19.5504C7.67334 19.7878 7.0862 19.4851 6.6957 19.2717C6.14623 18.9714 5.60387 18.6443 5.09165 18.2838C2.52012 16.4849 0.763302 13.743 0.203619 10.655C-0.140828 8.65609 0.071373 6.60815 0.00524974 4.5927C-0.0430315 3.12136 0.296814 2.98636 1.55095 2.45529L3.07728 1.80892L5.79448 0.655179C6.197 0.484678 7.117 0.0635994 7.50173 0.00393673Z" fill="#1D3B6D"/>
<path d="M16.0302 18.5432C16.1662 18.5377 16.3023 18.5339 16.4384 18.5317C17.8972 18.5162 20.1926 18.9427 21.3501 19.9245C21.996 20.4724 22.2744 21.9948 21.6481 22.6352C21.2363 23.0563 20.3361 22.9322 19.7564 22.9312L17.0498 22.9291L13.5532 22.9299C13.1239 22.9307 12.2377 22.9773 11.8622 22.9087C10.6579 22.6834 10.8971 20.7345 11.5023 20.0776C12.5096 18.9844 14.6365 18.6708 16.0302 18.5432Z" fill="#1D3B6D"/>
<path d="M16.2405 11.9581C17.7492 11.8131 19.0904 12.9171 19.2379 14.4255C19.3854 15.9339 18.2836 17.2769 16.7754 17.4269C15.2637 17.5772 13.917 16.4722 13.7691 14.9603C13.6213 13.4485 14.7284 12.1035 16.2405 11.9581Z" fill="#1D3B6D"/>
</svg>
